<svg width="23" height="22" viewBox="0 0 23 22" fill="none" xmlns="http://www.w3.org/2000/svg">
<path fill-rule="evenodd" clip-rule="evenodd" d="M0.620901 13.1133C0.522562 12.8796 0.472022 12.6292 0.472168 12.3763L0.477763 1.92503C0.477763 1.41448 0.684066 0.924842 1.05129 0.563829C1.41851 0.202816 1.91656 0 2.43589 0H13.0657C13.5851 0 14.0831 0.202816 14.4503 0.563829C14.8176 0.924842 15.0239 1.41448 15.0239 1.92503V3.58605C15.0239 3.80486 14.9354 4.01471 14.7781 4.16943C14.6207 4.32415 14.4072 4.41107 14.1847 4.41107C13.9621 4.41107 13.7486 4.32415 13.5913 4.16943C13.4339 4.01471 13.3455 3.80486 13.3455 3.58605V1.92503C13.3455 1.85209 13.316 1.78215 13.2635 1.73057C13.2111 1.679 13.1399 1.65003 13.0657 1.65003H2.43589C2.28036 1.65003 2.15616 1.77323 2.15616 1.92503L2.15056 12.3774C2.15056 12.4503 2.18004 12.5203 2.2325 12.5718C2.28496 12.6234 2.35611 12.6524 2.4303 12.6524H4.11429C4.33686 12.6524 4.55031 12.7393 4.70769 12.894C4.86507 13.0488 4.95349 13.2586 4.95349 13.4774C4.95349 13.6962 4.86507 13.9061 4.70769 14.0608C4.55031 14.2155 4.33686 14.3024 4.11429 14.3024H2.4303C2.17306 14.3024 1.91834 14.2526 1.6807 14.1558C1.44305 14.059 1.22714 13.9171 1.0453 13.7382C0.863452 13.5593 0.71924 13.347 0.620901 13.1133ZM6.09933 20.0749C6.09933 21.1376 6.97657 22 8.05746 22H20.8983C21.9792 22 22.8565 21.1376 22.8565 20.0749V7.42695C22.8565 6.9164 22.6501 6.42676 22.2829 6.06575C21.9157 5.70473 21.4177 5.50192 20.8983 5.50192H8.05746C7.53813 5.50192 7.04007 5.70473 6.67285 6.06575C6.30563 6.42676 6.09933 6.9164 6.09933 7.42695V20.0749ZM8.05746 20.3499C7.98327 20.3499 7.91212 20.321 7.85966 20.2694C7.8072 20.2178 7.77773 20.1479 7.77773 20.0749V7.42695C7.77773 7.27405 7.90305 7.15194 8.05746 7.15194H20.8983C20.9725 7.15194 21.0437 7.18092 21.0961 7.23249C21.1486 7.28406 21.1781 7.35401 21.1781 7.42695V20.0749C21.1781 20.1479 21.1486 20.2178 21.0961 20.2694C21.0437 20.321 20.9725 20.3499 20.8983 20.3499H8.05746ZM14.4791 17.6001C14.7017 17.6001 14.9151 17.5132 15.0725 17.3585C15.2299 17.2038 15.3183 16.9939 15.3183 16.7751V14.5751H17.5416C17.7642 14.5751 17.9776 14.4882 18.135 14.3334C18.2924 14.1787 18.3808 13.9689 18.3808 13.7501C18.3808 13.5313 18.2924 13.3214 18.135 13.1667C17.9776 13.012 17.7642 12.925 17.5416 12.925H15.3183V10.725C15.3183 10.5062 15.2299 10.2964 15.0725 10.1416C14.9151 9.98692 14.7017 9.9 14.4791 9.9C14.2565 9.9 14.0431 9.98692 13.8857 10.1416C13.7283 10.2964 13.6399 10.5062 13.6399 10.725V12.925H11.3875C11.1649 12.925 10.9515 13.012 10.7941 13.1667C10.6367 13.3214 10.5483 13.5313 10.5483 13.7501C10.5483 13.9689 10.6367 14.1787 10.7941 14.3334C10.9515 14.4882 11.1649 14.5751 11.3875 14.5751H13.6399V16.7751C13.6399 16.9939 13.7283 17.2038 13.8857 17.3585C14.0431 17.5132 14.2565 17.6001 14.4791 17.6001Z" fill="white"/>
</svg>
