<svg width="20" height="20" viewBox="0 0 20 20" fill="none" xmlns="http://www.w3.org/2000/svg">
<path d="M1.39096 18.125C1.39096 18.6223 1.61078 19.0992 2.00207 19.4508C2.39335 19.8025 2.92404 20 3.4774 20H15.996C16.5494 20 17.0801 19.8025 17.4714 19.4508C17.8627 19.0992 18.0825 18.6223 18.0825 18.125V5H1.39096V18.125ZM13.2141 8.125C13.2141 7.95924 13.2874 7.80027 13.4178 7.68306C13.5483 7.56585 13.7252 7.5 13.9096 7.5C14.0941 7.5 14.271 7.56585 14.4014 7.68306C14.5318 7.80027 14.6051 7.95924 14.6051 8.125V16.875C14.6051 17.0408 14.5318 17.1997 14.4014 17.3169C14.271 17.4342 14.0941 17.5 13.9096 17.5C13.7252 17.5 13.5483 17.4342 13.4178 17.3169C13.2874 17.1997 13.2141 17.0408 13.2141 16.875V8.125ZM9.04124 8.125C9.04124 7.95924 9.11452 7.80027 9.24495 7.68306C9.37537 7.56585 9.55227 7.5 9.73672 7.5C9.92118 7.5 10.0981 7.56585 10.2285 7.68306C10.3589 7.80027 10.4322 7.95924 10.4322 8.125V16.875C10.4322 17.0408 10.3589 17.1997 10.2285 17.3169C10.0981 17.4342 9.92118 17.5 9.73672 17.5C9.55227 17.5 9.37537 17.4342 9.24495 17.3169C9.11452 17.1997 9.04124 17.0408 9.04124 16.875V8.125ZM4.86836 8.125C4.86836 7.95924 4.94164 7.80027 5.07206 7.68306C5.20249 7.56585 5.37939 7.5 5.56384 7.5C5.7483 7.5 5.92519 7.56585 6.05562 7.68306C6.18605 7.80027 6.25932 7.95924 6.25932 8.125V16.875C6.25932 17.0408 6.18605 17.1997 6.05562 17.3169C5.92519 17.4342 5.7483 17.5 5.56384 17.5C5.37939 17.5 5.20249 17.4342 5.07206 17.3169C4.94164 17.1997 4.86836 17.0408 4.86836 16.875V8.125ZM18.778 1.25001H13.5619L13.1533 0.519538C13.0667 0.363372 12.9334 0.232008 12.7683 0.140225C12.6032 0.0484421 12.4129 -0.00011828 12.2187 6.84872e-06H7.25038C7.05668 -0.000662313 6.86669 0.047717 6.70217 0.139602C6.53765 0.231487 6.40527 0.363161 6.32018 0.519538L5.91158 1.25001H0.69548C0.511027 1.25001 0.334129 1.31585 0.203701 1.43306C0.0732736 1.55027 0 1.70925 0 1.87501L0 3.12501C0 3.29077 0.0732736 3.44974 0.203701 3.56695C0.334129 3.68416 0.511027 3.75001 0.69548 3.75001H18.778C18.9624 3.75001 19.1393 3.68416 19.2697 3.56695C19.4002 3.44974 19.4734 3.29077 19.4734 3.12501V1.87501C19.4734 1.70925 19.4002 1.55027 19.2697 1.43306C19.1393 1.31585 18.9624 1.25001 18.778 1.25001Z" fill="white"/>
</svg>
