<svg width="28" height="24" viewBox="0 0 28 24" fill="none" xmlns="http://www.w3.org/2000/svg">
<g clip-path="url(#clip0_770_7961)">
<path fill-rule="evenodd" clip-rule="evenodd" d="M1.50825 1.29287C1.85688 0.994034 2.38705 0.915319 2.83264 1.09624L24.9993 10.0962C25.4446 10.277 25.7094 10.6782 25.6609 11.0985C25.6123 11.5188 25.2609 11.8677 24.7828 11.9701L16.1286 13.8246L13.965 21.2425C13.8455 21.6523 13.4385 21.9535 12.9482 21.9951C12.4578 22.0367 11.9898 21.8098 11.7788 21.4281L1.27884 2.42806C1.06778 2.04613 1.15961 1.5917 1.50825 1.29287ZM12.492 18.0466L14.0347 12.7574C14.1392 12.3992 14.4656 12.1194 14.8836 12.0298L21.0543 10.7075L4.78598 4.10235L12.492 18.0466Z" fill="white"/>
</g>
<defs>
<clipPath id="clip0_770_7961">
<rect width="24" height="28" fill="white" transform="translate(0 24) rotate(-90)"/>
</clipPath>
</defs>
</svg>
