<svg width="35" height="35" viewBox="0 0 35 35" fill="none" xmlns="http://www.w3.org/2000/svg">
  <path
    d="M29.1666 29.1667H5.83329C5.05974 29.1667 4.31788 28.8594 3.7709 28.3124C3.22392 27.7654 2.91663 27.0236 2.91663 26.25V8.62314C2.94934 7.87179 3.27101 7.16212 3.81449 6.64228C4.35797 6.12245 5.08123 5.83263 5.83329 5.83334H29.1666C29.9402 5.83334 30.682 6.14064 31.229 6.68762C31.776 7.2346 32.0833 7.97646 32.0833 8.75001V26.25C32.0833 27.0236 31.776 27.7654 31.229 28.3124C30.682 28.8594 29.9402 29.1667 29.1666 29.1667ZM5.83329 11.4742V26.25H29.1666V11.4742L17.5 19.25L5.83329 11.4742ZM6.99996 8.75001L17.5 15.75L28 8.75001H6.99996Z"
    fill="#0F1E54"
    fill-opacity="0.75"
  />
</svg>