<svg width="42" height="40" viewBox="0 0 42 40" fill="none" xmlns="http://www.w3.org/2000/svg">
  <path
    d="M21.5 29.4286C20.5386 29.4286 19.6166 29.0673 18.9367 28.4244C18.2569 27.7814 17.875 26.9093 17.875 26C17.875 24.0971 19.4881 22.5714 21.5 22.5714C22.4614 22.5714 23.3834 22.9327 24.0633 23.5756C24.7431 24.2186 25.125 25.0907 25.125 26C25.125 26.9093 24.7431 27.7814 24.0633 28.4244C23.3834 29.0673 22.4614 29.4286 21.5 29.4286ZM32.375 34.5714V17.4286H10.625V34.5714H32.375ZM32.375 14C33.3364 14 34.2584 14.3612 34.9383 15.0042C35.6181 15.6472 36 16.5193 36 17.4286V34.5714C36 35.4807 35.6181 36.3528 34.9383 36.9958C34.2584 37.6388 33.3364 38 32.375 38H10.625C9.66359 38 8.74156 37.6388 8.06174 36.9958C7.38192 36.3528 7 35.4807 7 34.5714V17.4286C7 15.5257 8.61312 14 10.625 14H12.4375V10.5714C12.4375 8.29814 13.3923 6.11797 15.0918 4.51051C16.7914 2.90306 19.0965 2 21.5 2C22.6901 2 23.8686 2.22171 24.9681 2.65246C26.0676 3.08322 27.0666 3.71458 27.9082 4.51051C28.7497 5.30644 29.4172 6.25135 29.8727 7.29128C30.3281 8.33122 30.5625 9.44581 30.5625 10.5714V14H32.375ZM21.5 5.42857C20.0579 5.42857 18.6748 5.97041 17.6551 6.93488C16.6354 7.89935 16.0625 9.20746 16.0625 10.5714V14H26.9375V10.5714C26.9375 9.20746 26.3646 7.89935 25.3449 6.93488C24.3252 5.97041 22.9421 5.42857 21.5 5.42857Z"
    fill="#0F1E54"
    fill-opacity="0.75"
  />
</svg>