<svg
  width="10"
  height="16"
  viewBox="0 0 10 16"
  fill="none"
  xmlns="http://www.w3.org/2000/svg">
  <path
    d="M5.49414 1.6875C5.24023 1.45898 4.85938 1.45898 4.63086 1.6875L1.17773 5.14062C0.923828 5.39453 0.923828 5.77539 1.17773 6.00391L1.73633 6.58789C1.99023 6.81641 2.37109 6.81641 2.59961 6.58789L5.0625 4.125L7.5 6.58789C7.72852 6.81641 8.13477 6.81641 8.36328 6.58789L8.94727 6.00391C9.17578 5.77539 9.17578 5.39453 8.94727 5.14062L5.49414 1.6875Z"
    fill="white"
  />
  <path
    d="M4.63086 13.5879C4.85938 13.8164 5.24023 13.8164 5.46875 13.5879L8.92188 10.1348C9.17578 9.88086 9.17578 9.5 8.92188 9.27148L8.36328 8.6875C8.10938 8.45898 7.72852 8.45898 7.5 8.6875L5.03711 11.1504L2.59961 8.6875C2.37109 8.45898 1.99023 8.45898 1.73633 8.6875L1.17773 9.27148C0.923828 9.5 0.923828 9.88086 1.17773 10.1348L4.63086 13.5879Z"
    fill="white"
  />
</svg>