<svg width="22" height="17" viewBox="0 0 22 17" fill="none" xmlns="http://www.w3.org/2000/svg">
<path d="M21.8543 7.72887C19.4624 2.58745 15.8468 0 11 0C6.15063 0 2.53758 2.58745 0.145696 7.73144C0.0497568 7.93874 0 8.16514 0 8.39439C0 8.62364 0.0497568 8.85005 0.145696 9.05735C2.53758 14.1988 6.15315 16.7862 11 16.7862C15.8494 16.7862 19.4624 14.1988 21.8543 9.05477C22.0486 8.63769 22.0486 8.15367 21.8543 7.72887ZM11 14.9325C6.93026 14.9325 3.9505 12.8265 1.84878 8.39311C3.9505 3.95969 6.93026 1.85369 11 1.85369C15.0697 1.85369 18.0495 3.95969 20.1512 8.39311C18.052 12.8265 15.0722 14.9325 11 14.9325ZM10.8991 3.86186C8.44664 3.86186 6.45845 5.89062 6.45845 8.39311C6.45845 10.8956 8.44664 12.9244 10.8991 12.9244C13.3515 12.9244 15.3397 10.8956 15.3397 8.39311C15.3397 5.89062 13.3515 3.86186 10.8991 3.86186ZM10.8991 11.2766C9.33728 11.2766 8.07322 9.98677 8.07322 8.39311C8.07322 6.79945 9.33728 5.50959 10.8991 5.50959C12.4609 5.50959 13.7249 6.79945 13.7249 8.39311C13.7249 9.98677 12.4609 11.2766 10.8991 11.2766Z" fill="#212529"/>
</svg>
